<svg xmlns="http://www.w3.org/2000/svg" width="64" height="64" viewBox="0 0 64 64">
  <defs>
    <style>
      .cls-1 {
        fill: #fff;
        fill-rule: evenodd;
      }
    </style>
  </defs>
  <path id="icon" class="cls-1" d="M63.548,12.023a3.974,3.974,0,0,0-2.343-1.97L39.067,3.04,39.04,3.034l-0.076-.241A4,4,0,0,0,33.943.187L2.795,10.052A4,4,0,0,0,.189,15.074L14.805,61.207a4,4,0,0,0,5.021,2.606L32,59.957l12.173,3.856a4,4,0,0,0,5.021-2.605l2.367-7.471c0-.011.005-0.022,0.009-0.033a4,4,0,0,0,2.01-4.778l-0.247-.779L63.81,15.074A3.974,3.974,0,0,0,63.548,12.023ZM46.653,60.4a1.335,1.335,0,0,1-1.674.868l-8.563-2.712,12.028-3.809Zm4.3-9.654a1.322,1.322,0,0,1-.781.657L31.646,57.272c-0.029.008-.058,0.017-0.086,0.027L19.021,61.271a1.335,1.335,0,0,1-1.674-.869L2.731,14.269A1.334,1.334,0,0,1,3.6,12.595L34.748,2.729h0a1.335,1.335,0,0,1,1.674.868L51.037,49.731A1.325,1.325,0,0,1,50.95,50.748ZM42.445,13.78l11,3.484L48.5,32.884Zm18.824,0.488L51.934,43.732,49.9,37.3,55.988,18.07a2.666,2.666,0,0,0-1.737-3.347L41.733,10.758A1.388,1.388,0,0,0,41.47,10.7L40.024,6.141,60.4,12.595A1.333,1.333,0,0,1,61.269,14.268ZM27.186,23.014a4.947,4.947,0,0,0-2.607,1.964,4.949,4.949,0,0,0-3.262-.1,4.925,4.925,0,0,0-3.207,6.182,4.607,4.607,0,0,0,2.657,2.881l5.519,2.255a2.751,2.751,0,0,0,3.357-1.064l3.214-5.022a4.606,4.606,0,0,0,.513-3.885A4.924,4.924,0,0,0,27.186,23.014Zm3.423,5.654L27.4,33.69a0.081,0.081,0,0,1-.045.035,0.078,0.078,0,0,1-.057,0l-5.519-2.254a1.947,1.947,0,0,1-1.123-1.217,2.258,2.258,0,0,1,1.471-2.834,2.27,2.27,0,0,1,.688-0.107,2.246,2.246,0,0,1,1.489.567,1.333,1.333,0,0,0,2.177-.69,2.258,2.258,0,0,1,4.349-.159A1.947,1.947,0,0,1,30.609,28.668ZM34.293,9.746a2.669,2.669,0,0,0-3.347-1.737l-21.2,6.714A2.666,2.666,0,0,0,8.012,18.07l9.881,31.187a2.668,2.668,0,0,0,3.347,1.736l21.2-6.714a2.667,2.667,0,0,0,1.737-3.347ZM20.435,48.452l-9.88-31.187,11.425-3.618,9.772-3.095,9.88,31.186Z"/>
</svg>
