<svg xmlns="http://www.w3.org/2000/svg" width="68" height="66" viewBox="0 0 68 66">
  <defs>
    <style>
      .cls-1 {
        fill: #3172b9;
        fill-rule: evenodd;
      }
    </style>
  </defs>
  <path id="icon" class="cls-1" d="M50.393,0A18.064,18.064,0,0,0,31.9,17.512l-0.124,4.971a2.486,2.486,0,0,0,4.971.107l0.124-4.971a13.08,13.08,0,0,1,26.152.567,13.1,13.1,0,0,1-13.4,12.685L18.5,30.2A17.905,17.905,0,1,0,36.1,48.488l0.123-4.917a2.486,2.486,0,0,0-4.971-.108L31.13,48.38A13.08,13.08,0,1,1,18.377,35.127L49.5,35.8A18.064,18.064,0,0,0,67.994,18.295,17.923,17.923,0,0,0,50.393,0Z"/>
</svg>
