<svg xmlns="http://www.w3.org/2000/svg" width="86" height="64" viewBox="0 0 86 64">
  <defs>
    <style>
      .cls-1 {
        fill: #3172b9;
        fill-rule: evenodd;
      }
    </style>
  </defs>
  <path id="icon" class="cls-1" d="M73.694,5.938a20.217,20.217,0,0,0-28.623,0L43.463,7.547,41.856,5.938a20.218,20.218,0,0,0-28.624,0,20.316,20.316,0,0,0,0,28.668L41.955,63.374a2.131,2.131,0,0,0,3.016,0L73.694,34.606A20.294,20.294,0,0,0,73.694,5.938ZM70.678,31.586L43.463,58.844,16.248,31.586a16.036,16.036,0,0,1,0-22.629,15.958,15.958,0,0,1,22.592,0l3.114,3.119a2.128,2.128,0,0,0,3.015,0l3.114-3.119a15.959,15.959,0,0,1,22.593,0A16.037,16.037,0,0,1,70.678,31.586ZM9.95,26.982H2.132a2.136,2.136,0,0,0,0,4.271H9.95A2.136,2.136,0,0,0,9.95,26.982Zm66.808,0.069H56.352l-3.175-7a1.42,1.42,0,0,0-2.633.113L44.053,38.487,36.162,16.6a1.422,1.422,0,0,0-1.27-.938,1.382,1.382,0,0,0-1.353.816l-5.3,11.284H10.66a1.423,1.423,0,0,0-1.421,1.424,1.653,1.653,0,0,0,1.721,1.355H29.439a0.979,0.979,0,0,0,.987-0.748l4.227-9,8.076,22.4a1.421,1.421,0,0,0,1.337.94h0a1.421,1.421,0,0,0,1.335-.948l6.641-18.746,2.1,4.621a1.847,1.847,0,0,0,1.593.766H77.059a1.139,1.139,0,0,0,1.122-1.355A1.423,1.423,0,0,0,76.759,27.051Zm7.109-.781h-6.4a2.136,2.136,0,0,0,0,4.271h6.4A2.136,2.136,0,0,0,83.868,26.27Z"/>
</svg>
