<svg xmlns="http://www.w3.org/2000/svg" width="65" height="65" viewBox="0 0 65 65">
  <defs>
    <style>
      .cls-1 {
        fill: #3172b9;
        fill-rule: evenodd;
      }
    </style>
  </defs>
  <path id="icon" class="cls-1" d="M42.613,30.99l2.862-2.862q0.254,0.02.511,0.02a6.346,6.346,0,0,0,4.516-1.87l2.725-2.725a6.393,6.393,0,0,0,0-9.031L40.574,1.871a6.386,6.386,0,0,0-9.031,0L28.817,4.6A6.373,6.373,0,0,0,26.97,9.619L9.617,26.969q-0.254-.02-0.511-0.02a6.344,6.344,0,0,0-4.516,1.87L1.865,31.544a6.392,6.392,0,0,0,0,9.031L14.519,53.227a6.387,6.387,0,0,0,9.032,0L26.276,50.5a6.344,6.344,0,0,0,1.87-4.515c0-.172-0.007-0.342-0.02-0.511l2.862-2.862L51.507,63.13a6.388,6.388,0,0,0,9.032,0l2.593-2.593a6.393,6.393,0,0,0,0-9.031ZM27.7,39.244L22.548,44.4l0.4,0.4a1.68,1.68,0,0,1,0,2.376L20.223,49.9a1.681,1.681,0,0,1-2.377,0L5.193,37.247a1.68,1.68,0,0,1,0-2.376l2.725-2.725a1.681,1.681,0,0,1,2.377,0l0.4,0.4L32.544,10.7l-0.4-.4a1.681,1.681,0,0,1,0-2.377L34.87,5.2a1.681,1.681,0,0,1,2.377,0L49.9,17.85a1.68,1.68,0,0,1,0,2.376l-2.725,2.725a1.681,1.681,0,0,1-2.377,0l-0.4-.4-5.155,5.155-3.46,3.459-4.619,4.619ZM59.8,57.21L57.211,59.8a1.681,1.681,0,0,1-2.377,0L34.316,39.286l4.97-4.97L59.8,54.834A1.68,1.68,0,0,1,59.8,57.21Z"/>
</svg>
